{"title":"The Vow 2012 TS XVID AC3-TRiNiTY","uid":7058943,"size":873685444,"categoryP":"video","categoryS":"movies","magnet":"?xt=urn:btih:5bd9448b67df3977ef50b4f6a145fdb0fee77855&amp;dn=The+Vow+2012+TS+XVID+AC3-TRiNiTY&amp;tr=udp%3A%2F%2Ftracker.openbittorrent.com%3A80&amp;tr=udp%3A%2F%2Fopen.demonii.com%3A1337&amp;tr=udp%3A%2F%2Ftracker.coppersurfer.tk%3A6969&amp;tr=udp%3A%2F%2Fexodus.desync.com%3A6969","seeders":1,"leechers":0,"uploader":"crazy-torrent","files":2,"time":1330268396,"description":" &lt;a href=&quot;http://www.scenespeeds.com/&quot; rel=&quot;nofollow&quot; target=&quot;_NEW&quot;&gt;http://www.scenespeeds.com/&lt;/a&gt;\n\nDescription\n &lt;a href=&quot;\nhttp://www.imdb.com/title/tt1606389/&quot; rel=&quot;nofollow&quot; target=&quot;_NEW&quot;&gt;\nhttp://www.imdb.com/title/tt1606389/&lt;/a&gt;\nGeneral\nComplete name: The Vow 2012 TS XVID AC3-TRiNiTY .avi\nFormat: AVI\nFormat/Info: Audio Video Interleave\nFile size: 833 MiB\nDuration: 1h 39mn\nOverall bit rate: 1 170 Kbps\nWriting library: VirtualDub build 30091/release\n\nVideo\nID: 0\nFormat: MPEG-4 Visual\nFormat profile: Advanced Simple@L5\nFormat settings, BVOP: 2\nFormat settings, QPel: No\nFormat settings, GMC: No warppoints\nFormat settings, Matrix: Default (H.263)\nCodec ID: XVID\nCodec ID/Hint: XviD\nDuration: 1h 39mn\nBit rate: 776 Kbps\nWidth: 720 pixels\nHeight: 304 pixels\nDisplay aspect ratio: 2.35:1\nFrame rate: 25.000 fps\nColor space: YUV\nChroma subsampling: 4:2:0\nBit depth: 8 bits\nScan type: Progressive\nCompression mode: Lossy\nBits/(Pixel*Frame): 0.142\nStream size: 553 MiB (66%)\nWriting library: XviD 1.2.1 (UTC 2008-12-04)\n\nAudio\nID: 1\nFormat: AC-3\nFormat/Info: Audio Coding 3\nMode extension: CM (complete main)\nCodec ID: 2000\nDuration: 1h 39mn\nBit rate mode: Constant\nBit rate: 384 Kbps\nChannel(s): 2 channels\nChannel positions: Front: L R\nSampling rate: 48.0 KHz\nBit depth: 16 bits\nCompression mode: Lossy\nStream size: 273 MiB (33%)\nAlignment: Aligned on interleaves\nInterleave, duration: 40 ms (1.00 video frame)\nInterleave, preload duration: 512 ms\n\nSOURCE:\nThe Vow:BBnRG.Thanks\nSample:Yes\n\n       &lt;a href=&quot;\nhttp://www.scenespeeds.com/&quot; rel=&quot;nofollow&quot; target=&quot;_NEW&quot;&gt;\nhttp://www.scenespeeds.com/&lt;/a&gt;\t","torrent":{"xt":"urn:btih:5bd9448b67df3977ef50b4f6a145fdb0fee77855","amp;dn":"The+Vow+2012+TS+XVID+AC3-TRiNiTY","amp;tr":["udp%3A%2F%2Ftracker.openbittorrent.com%3A80","udp%3A%2F%2Fopen.demonii.com%3A1337","udp%3A%2F%2Ftracker.coppersurfer.tk%3A6969","udp%3A%2F%2Fexodus.desync.com%3A6969"],"infoHash":"5bd9448b67df3977ef50b4f6a145fdb0fee77855","infoHashBuffer":{"type":"Buffer","data":[91,217,68,139,103,223,57,119,239,80,180,246,161,69,253,176,254,231,120,85]},"announce":[],"urlList":[]}}